<mxfile host="Electron" agent="Mozilla/5.0 (Windows NT 10.0; Win64; x64) AppleWebKit/537.36 (KHTML, like Gecko) draw.io/26.2.15 Chrome/134.0.6998.205 Electron/35.2.1 Safari/537.36" version="26.2.15">
  <diagram id="Ht1M8jgEwFfnCIfOTk4-" name="Page-1">
    <mxGraphModel dx="4160" dy="1821" grid="1" gridSize="10" guides="1" tooltips="1" connect="1" arrows="1" fold="1" page="1" pageScale="1" pageWidth="1169" pageHeight="827" math="0" shadow="0">
      <root>
        <mxCell id="0" />
        <mxCell id="1" parent="0" />
        <mxCell id="Y_WuvaqCIMyLecRDelAK-1" value="" style="rounded=0;whiteSpace=wrap;html=1;fillColor=none;glass=1;" vertex="1" parent="1">
          <mxGeometry x="-2040" y="-640" width="210" height="410" as="geometry" />
        </mxCell>
        <mxCell id="Y_WuvaqCIMyLecRDelAK-2" value="" style="rounded=0;whiteSpace=wrap;html=1;fillColor=none;glass=1;" vertex="1" parent="1">
          <mxGeometry x="-2610" y="-640" width="190" height="240" as="geometry" />
        </mxCell>
        <mxCell id="Y_WuvaqCIMyLecRDelAK-3" value="" style="rounded=0;whiteSpace=wrap;html=1;glass=1;fillColor=none;" vertex="1" parent="1">
          <mxGeometry x="-1710" y="-640" width="250" height="450" as="geometry" />
        </mxCell>
        <mxCell id="Y_WuvaqCIMyLecRDelAK-4" value="manage" style="rounded=1;whiteSpace=wrap;html=1;fillColor=none;" vertex="1" parent="1">
          <mxGeometry x="-2030" y="-624" width="190" height="84" as="geometry" />
        </mxCell>
        <mxCell id="Y_WuvaqCIMyLecRDelAK-5" value="" style="rounded=0;whiteSpace=wrap;html=1;glass=1;fillColor=none;" vertex="1" parent="1">
          <mxGeometry x="-2338" y="-640" width="220" height="390" as="geometry" />
        </mxCell>
        <mxCell id="Y_WuvaqCIMyLecRDelAK-6" value="&lt;span style=&quot;text-wrap-mode: wrap;&quot;&gt;endpoints&lt;/span&gt;" style="text;html=1;align=center;verticalAlign=middle;resizable=0;points=[];autosize=1;strokeColor=none;fillColor=none;" vertex="1" parent="1">
          <mxGeometry x="-2000" y="-672" width="80" height="30" as="geometry" />
        </mxCell>
        <mxCell id="Y_WuvaqCIMyLecRDelAK-7" value="openapi&lt;span style=&quot;color: rgba(0, 0, 0, 0); font-family: monospace; font-size: 0px; text-align: start; text-wrap-mode: nowrap;&quot;&gt;%3CmxGraphModel%3E%3Croot%3E%3CmxCell%20id%3D%220%22%2F%3E%3CmxCell%20id%3D%221%22%20parent%3D%220%22%2F%3E%3CmxCell%20id%3D%222%22%20value%3D%22manage%22%20style%3D%22rounded%3D1%3BwhiteSpace%3Dwrap%3Bhtml%3D1%3BfillColor%3Dnone%3B%22%20vertex%3D%221%22%20parent%3D%221%22%3E%3CmxGeometry%20x%3D%22-2030%22%20y%3D%22-624%22%20width%3D%22190%22%20height%3D%2284%22%20as%3D%22geometry%22%2F%3E%3C%2FmxCell%3E%3C%2Froot%3E%3C%2FmxGraphModel%3E&lt;/span&gt;" style="rounded=1;whiteSpace=wrap;html=1;fillColor=none;" vertex="1" parent="1">
          <mxGeometry x="-2030" y="-524" width="190" height="84" as="geometry" />
        </mxCell>
        <mxCell id="Y_WuvaqCIMyLecRDelAK-8" value="test" style="rounded=1;whiteSpace=wrap;html=1;fillColor=none;" vertex="1" parent="1">
          <mxGeometry x="-2030" y="-420" width="190" height="84" as="geometry" />
        </mxCell>
        <mxCell id="Y_WuvaqCIMyLecRDelAK-9" value="api_full_sync" style="rounded=1;whiteSpace=wrap;html=1;fillColor=none;" vertex="1" parent="1">
          <mxGeometry x="-2020" y="-320" width="80" height="30" as="geometry" />
        </mxCell>
        <mxCell id="Y_WuvaqCIMyLecRDelAK-10" value="index" style="rounded=1;whiteSpace=wrap;html=1;fillColor=none;" vertex="1" parent="1">
          <mxGeometry x="-2020" y="-280" width="70" height="30" as="geometry" />
        </mxCell>
        <mxCell id="Y_WuvaqCIMyLecRDelAK-11" value="type" style="rounded=1;whiteSpace=wrap;html=1;fillColor=none;" vertex="1" parent="1">
          <mxGeometry x="-1930" y="-280" width="70" height="30" as="geometry" />
        </mxCell>
        <mxCell id="Y_WuvaqCIMyLecRDelAK-12" value="constant" style="rounded=1;whiteSpace=wrap;html=1;fillColor=none;" vertex="1" parent="1">
          <mxGeometry x="-1930" y="-320" width="70" height="30" as="geometry" />
        </mxCell>
        <mxCell id="Y_WuvaqCIMyLecRDelAK-13" value="&lt;span style=&quot;text-wrap-mode: wrap;&quot;&gt;modules&lt;/span&gt;" style="text;html=1;align=center;verticalAlign=middle;resizable=0;points=[];autosize=1;strokeColor=none;fillColor=none;" vertex="1" parent="1">
          <mxGeometry x="-1645" y="-682" width="70" height="30" as="geometry" />
        </mxCell>
        <mxCell id="Y_WuvaqCIMyLecRDelAK-14" value="admin" style="rounded=1;whiteSpace=wrap;html=1;" vertex="1" parent="1">
          <mxGeometry x="-1690" y="-624" width="210" height="34" as="geometry" />
        </mxCell>
        <mxCell id="Y_WuvaqCIMyLecRDelAK-15" value="increment_sync" style="rounded=1;whiteSpace=wrap;html=1;" vertex="1" parent="1">
          <mxGeometry x="-1690" y="-524" width="210" height="34" as="geometry" />
        </mxCell>
        <mxCell id="Y_WuvaqCIMyLecRDelAK-16" value="db" style="rounded=1;whiteSpace=wrap;html=1;" vertex="1" parent="1">
          <mxGeometry x="-1690" y="-474" width="210" height="34" as="geometry" />
        </mxCell>
        <mxCell id="Y_WuvaqCIMyLecRDelAK-17" value="lock" style="rounded=1;whiteSpace=wrap;html=1;" vertex="1" parent="1">
          <mxGeometry x="-1690" y="-420" width="210" height="34" as="geometry" />
        </mxCell>
        <mxCell id="Y_WuvaqCIMyLecRDelAK-18" value="service" style="rounded=1;whiteSpace=wrap;html=1;" vertex="1" parent="1">
          <mxGeometry x="-1690" y="-370" width="210" height="34" as="geometry" />
        </mxCell>
        <mxCell id="Y_WuvaqCIMyLecRDelAK-19" value="schedule" style="rounded=1;whiteSpace=wrap;html=1;" vertex="1" parent="1">
          <mxGeometry x="-1690" y="-320" width="210" height="34" as="geometry" />
        </mxCell>
        <mxCell id="Y_WuvaqCIMyLecRDelAK-20" value="sync" style="rounded=1;whiteSpace=wrap;html=1;" vertex="1" parent="1">
          <mxGeometry x="-1690" y="-574" width="210" height="34" as="geometry" />
        </mxCell>
        <mxCell id="Y_WuvaqCIMyLecRDelAK-21" value="metrics" style="rounded=1;whiteSpace=wrap;html=1;" vertex="1" parent="1">
          <mxGeometry x="-1690" y="-270" width="210" height="34" as="geometry" />
        </mxCell>
        <mxCell id="Y_WuvaqCIMyLecRDelAK-22" value="full_sync_statistic_analyse" style="rounded=1;whiteSpace=wrap;html=1;" vertex="1" parent="1">
          <mxGeometry x="-1690" y="-230" width="210" height="34" as="geometry" />
        </mxCell>
        <mxCell id="Y_WuvaqCIMyLecRDelAK-23" value="&lt;span style=&quot;text-align: center;&quot;&gt;sdk&lt;/span&gt;" style="text;whiteSpace=wrap;html=1;" vertex="1" parent="1">
          <mxGeometry x="-2250" y="-672" width="50" height="40" as="geometry" />
        </mxCell>
        <mxCell id="Y_WuvaqCIMyLecRDelAK-25" value="account" style="rounded=1;whiteSpace=wrap;html=1;" vertex="1" parent="1">
          <mxGeometry x="-2320" y="-612" width="180" height="52" as="geometry" />
        </mxCell>
        <mxCell id="Y_WuvaqCIMyLecRDelAK-26" value="cognac" style="rounded=1;whiteSpace=wrap;html=1;" vertex="1" parent="1">
          <mxGeometry x="-2320" y="-540" width="180" height="52" as="geometry" />
        </mxCell>
        <mxCell id="Y_WuvaqCIMyLecRDelAK-27" value="common" style="rounded=1;whiteSpace=wrap;html=1;" vertex="1" parent="1">
          <mxGeometry x="-2320" y="-461" width="180" height="52" as="geometry" />
        </mxCell>
        <mxCell id="Y_WuvaqCIMyLecRDelAK-28" value="account" style="rounded=1;whiteSpace=wrap;html=1;" vertex="1" parent="1">
          <mxGeometry x="-2315" y="-379" width="180" height="52" as="geometry" />
        </mxCell>
        <mxCell id="Y_WuvaqCIMyLecRDelAK-29" value="&lt;span style=&quot;text-wrap-mode: wrap;&quot;&gt;middleware&lt;/span&gt;" style="text;html=1;align=center;verticalAlign=middle;resizable=0;points=[];autosize=1;strokeColor=none;fillColor=none;" vertex="1" parent="1">
          <mxGeometry x="-2560" y="-670" width="80" height="30" as="geometry" />
        </mxCell>
        <mxCell id="Y_WuvaqCIMyLecRDelAK-30" value="&lt;div class=&quot;lake-content&quot;&gt;AdminUserRoleMiddleware&lt;/div&gt;" style="rounded=1;whiteSpace=wrap;html=1;" vertex="1" parent="1">
          <mxGeometry x="-2595" y="-600" width="160" height="60" as="geometry" />
        </mxCell>
        <mxCell id="Y_WuvaqCIMyLecRDelAK-31" value="&lt;div class=&quot;lake-content&quot;&gt;WpsSidMiddleware&lt;/div&gt;" style="rounded=1;whiteSpace=wrap;html=1;" vertex="1" parent="1">
          <mxGeometry x="-2595" y="-510" width="160" height="60" as="geometry" />
        </mxCell>
      </root>
    </mxGraphModel>
  </diagram>
</mxfile>
